PathFileType	4	(X/Y/Z)	S01_0015_Gait_markers.trc
DataRate	CameraRate	NumFrames	NumMarkers	Units	OrigDataRate	OrigDataStartFrame	OrigNumFrames
250.000000	250.000000	4	54	mm	250.000000	268	358
Frame#	Time	HEAD_ANT			R_HEAD			L_HEAD			C7			R_BACK			L_BACK			STERNUM			R_ACROMION			R_HUM_PROX			R_HUM_ANT			R_HUM_POST			R_ELBOW_LAT			R_ELBOW_MED			R_FOREARM			R_WIRST_LAT			R_WRITS_MED			R_HAND			L_ACROMION			L_HUM_PROX			L_HUM_ANT			L_HUM_POST			L_ELBOW_LAT			L_ELBOW_MED			L_FOREARM			L_WRIST_LAT			L_WIRST_MED			L_HAND			R_ILIAC			SACRUM			L_ILIAC			R_GTROCH			R_THIGH__1			R_THIGH_2			R_THIGH_3			R_THIGH_4			R_SHANK_1			R_SHANK_2			R_SHANK_3			R_SHANK_4			R_HEEL			R_FOOT_LAT			R_FOOT_MED			L_GTROCH			L_THIGH_1			L_THIGH_2			L_THIGH_3			L_THIGH_4			L_SHANK_1			L_SHANK_2			L_SHANK_3			L_SHANK_4			L_HEEL			L_FOOT_LAT			L_FOOT_MED			
		X1	Y1	Z1	X2	Y2	Z2	X3	Y3	Z3	X4	Y4	Z4	X5	Y5	Z5	X6	Y6	Z6	X7	Y7	Z7	X8	Y8	Z8	X9	Y9	Z9	X10	Y10	Z10	X11	Y11	Z11	X12	Y12	Z12	X13	Y13	Z13	X14	Y14	Z14	X15	Y15	Z15	X16	Y16	Z16	X17	Y17	Z17	X18	Y18	Z18	X19	Y19	Z19	X20	Y20	Z20	X21	Y21	Z21	X22	Y22	Z22	X23	Y23	Z23	X24	Y24	Z24	X25	Y25	Z25	X26	Y26	Z26	X27	Y27	Z27	X28	Y28	Z28	X29	Y29	Z29	X30	Y30	Z30	X31	Y31	Z31	X32	Y32	Z32	X33	Y33	Z33	X34	Y34	Z34	X35	Y35	Z35	X36	Y36	Z36	X37	Y37	Z37	X38	Y38	Z38	X39	Y39	Z39	X40	Y40	Z40	X41	Y41	Z41	X42	Y42	Z42	X43	Y43	Z43	X44	Y44	Z44	X45	Y45	Z45	X46	Y46	Z46	X47	Y47	Z47	X48	Y48	Z48	X49	Y49	Z49	X50	Y50	Z50	X51	Y51	Z51	X52	Y52	Z52	X53	Y53	Z53	X54	Y54	Z54	

269	1.072	1576.901123046875	1746.3623046875	-356.7490539550777	1518.128784179688	1698.991943359375	-277.2914428710934	1518.501831054688	1694.238525390625	-424.9814453124996	1382.745239257812	1527.1865234375	-348.5065612792965	1308.750610351562	1332.455932617188	-280.1184387207028	1310.81982421875	1334.897094726562	-423.8128967285153	1560.578002929688	1364.63037109375	-344.3176269531247	1456.880249023438	1478.436767578125	-172.8458862304684	1404.133911132812	1320.337280273438	-81.99103546142548	1459.427001953125	1230.76953125	-75.2680358886716	1338.193603515625	1242.043090820312	-73.82717132568332	1375.857666015625	1132.677490234375	-62.6480216979978	1359.33447265625	1129.1171875	-144.5201416015622	1469.334106445312	945.91455078125	-53.43301010131815	1508.902099609375	879.2927856445312	-89.79170227050761	1437.675537109375	857.195556640625	-57.28584671020489	1504.5341796875	790.5657958984375	-34.00318145751935	1467.033325195312	1481.730102539063	-512.6116943359372	1449.356567382812	1316.915893554688	-611.4786376953122	1510.236694335938	1234.90576171875	-606.8675537109373	1391.031982421875	1240.8974609375	-642.087707519531	1448.33056640625	1135.938842773438	-647.3627929687498	1392.488403320312	1128.765502929688	-593.1785888671873	1565.164672851562	969.6091918945314	-614.248352050781	1596.951416015625	913.8655395507814	-557.883117675781	1559.136474609375	885.3856201171876	-621.1859130859373	1640.040283203125	837.9166259765626	-600.4523315429685	1446.101928710938	1080.878295898438	-174.9046783447263	1315.370971679688	1054.08642578125	-341.2482299804685	1437.309936523438	1071.601684570313	-517.7836303710935	1410.417846679688	928.4562377929688	-152.6333618164061	1535.236938476562	662.3951416015625	-175.9693145751952	1584.953247070312	694.2000122070312	-173.2025604248045	1617.44970703125	596.795166015625	-206.147994995117	1554.069946289062	584.6760864257812	-196.1015014648436	1535.989624023438	372.0039978027344	-189.8720550537109	1589.433349609375	346.4799804687501	-202.1688995361327	1579.001953125	262.3526611328126	-217.5494232177734	1516.0986328125	273.5764160156251	-209.4210205078124	1466.629638671875	61.85120773315436	-293.2879333496094	1619.333374023438	32.81064987182621	-196.9742584228516	1678.137451171875	45.39068603515631	-280.49072265625	1392.157470703125	959.9113159179689	-519.6759643554685	1442.05712890625	665.0606689453126	-493.9404296874998	1392.330322265625	691.2304077148439	-510.5769958496092	1363.686279296875	593.7237548828126	-475.3775939941405	1427.35009765625	588.2128295898439	-468.3305358886718	1344.366333007812	327.0754699707032	-452.9661865234374	1284.50439453125	314.2282714843751	-456.0756530761718	1267.8984375	230.7476196289063	-435.8556213378906	1331.199951171875	227.3313751220704	-425.8090820312499	1196.65283203125	53.71381378173836	-358.6131286621094	1368.1142578125	21.26759719848642	-435.384033203125	1409.230224609375	25.78133583068855	-329.8890075683594	
270	1.076	1582.678100585938	1745.529174804688	-356.3592529296871	1523.02734375	1697.96484375	-277.9656066894527	1524.194946289062	1693.681518554688	-424.6379089355465	1388.338500976562	1526.393310546875	-348.691497802734	1314.374755859375	1331.713623046875	-280.3146667480466	1316.283203125	1334.333129882812	-423.9736633300778	1565.868408203125	1363.59033203125	-344.2927551269528	1462.31494140625	1477.53369140625	-172.8841400146481	1409.423583984375	1319.478271484375	-82.12583160400361	1464.271728515625	1229.90771484375	-75.31006622314426	1343.1728515625	1241.269653320312	-73.95550537109348	1380.578491210938	1131.927124023438	-62.73028182983374	1364.0673828125	1128.462768554688	-144.7377624511716	1474.081298828125	945.1256103515625	-53.29247665405252	1513.745361328125	878.5651245117188	-89.61259460449199	1442.4501953125	856.2999877929688	-57.42089843749981	1509.322021484375	789.8898315429688	-33.79569244384748	1472.734985351562	1481.073852539063	-512.5538330078122	1455.367431640625	1316.30224609375	-611.5316162109372	1516.399780273438	1234.489013671875	-606.856750488281	1397.112548828125	1240.211547851563	-642.4399414062498	1454.537841796875	1135.365356445313	-647.6145019531248	1398.84033203125	1127.900024414063	-593.3656616210935	1571.860473632812	969.5303344726564	-613.8962402343748	1603.668701171875	913.8714599609376	-557.207092285156	1566.278442382812	885.2030639648439	-620.665588378906	1647.312744140625	837.9570312500001	-599.5026245117185	1451.564086914062	1079.858764648438	-174.9178314208982	1320.647827148438	1053.459838867188	-341.2167358398435	1442.232299804688	1070.905029296875	-517.8405151367185	1415.8740234375	927.6114501953125	-152.9398193359373	1540.767333984375	661.9028930664062	-176.0856018066405	1590.440795898438	693.50439453125	-173.2286224365233	1623.1787109375	596.23974609375	-206.363800048828	1559.906860351562	584.0020141601562	-196.3992767333983	1545.634887695312	370.5058898925782	-190.4384155273437	1599.855346679688	346.4072570800782	-202.3983612060546	1591.22412109375	262.0414428710938	-217.9428710937499	1528.15380859375	271.7208557128907	-209.9420928955078	1483.913818359375	58.95233535766608	-293.7890319824219	1636.594848632812	32.20400238037114	-197.6577453613281	1695.616821289062	45.89891433715827	-280.8551025390625	1396.866333007812	959.3148803710939	-519.4445800781248	1444.570678710938	664.6594848632814	-494.1842651367186	1394.931274414062	691.2413330078126	-510.5574645996092	1366.210083007812	594.5095825195314	-475.9579467773436	1429.686889648438	587.8328857421876	-468.453887939453	1345.182861328125	327.1835937500001	-452.8807373046874	1285.33544921875	314.4030151367189	-455.9733581542968	1268.522216796875	231.080780029297	-435.5604248046874	1331.836547851562	227.6554107666016	-425.8325500488281	1196.794311523438	54.37963104248055	-358.1782531738281	1367.953369140625	21.28782081604013	-435.2796325683594	1409.2978515625	25.80068206787117	-329.97119140625	
271	1.08	1588.459838867188	1744.687133789062	-356.1571350097652	1528.75634765625	1697.0517578125	-277.6368713378902	1530.053100585938	1692.881713867188	-424.4458618164059	1393.9453125	1525.744995117188	-348.6371154785153	1321.033325195312	1330.0380859375	-280.6044311523435	1321.751098632812	1333.6669921875	-424.1380615234372	1571.35595703125	1362.559204101562	-344.0242919921872	1467.6865234375	1476.562255859375	-172.7993164062497	1414.496704101562	1318.612060546875	-82.19795227050751	1469.184448242188	1228.890991210938	-74.79028320312473	1348.287475585938	1240.187622070312	-73.8808517456052	1385.843994140625	1130.908325195312	-62.84973144531225	1369.107788085938	1127.614501953125	-144.9517059326169	1478.859497070312	944.2739868164062	-53.15148544311502	1518.591552734375	877.687255859375	-89.42189788818339	1447.299438476562	855.5258178710938	-57.41326522827129	1514.077880859375	789.2540893554688	-33.49421691894513	1478.297119140625	1480.2373046875	-512.5180053710934	1461.10205078125	1315.4755859375	-611.5471191406247	1522.499755859375	1234.152221679688	-606.646057128906	1403.250366210938	1239.449462890625	-642.7104492187498	1460.658813476562	1134.722290039063	-647.9703369140623	1404.99365234375	1127.027587890625	-593.683410644531	1578.707275390625	969.1533203125001	-613.5148315429685	1610.450317382812	913.8613281250001	-556.7108764648435	1573.217651367188	884.3672485351564	-619.4268798828123	1654.522827148438	838.1842041015626	-598.5920410156248	1457.110595703125	1079.015014648438	-174.7862701416013	1325.914428710938	1052.751220703125	-341.0197143554685	1447.407592773438	1070.185546875	-518.0614013671873	1421.10205078125	926.6939697265625	-153.000534057617	1546.276977539062	661.26318359375	-176.204635620117	1595.872680664062	692.9700317382812	-173.4384307861327	1628.812622070312	595.7515258789062	-206.5610504150389	1565.645751953125	583.5680541992188	-196.4785308837889	1555.210571289062	368.9371948242188	-191.0307159423827	1610.169799804688	346.1459045410157	-202.6332397460937	1603.602294921875	261.5488281250001	-218.1409606933593	1540.2021484375	269.7810668945313	-210.5806121826171	1501.245849609375	56.43508529663092	-294.2615966796875	1654.5302734375	31.95232200622563	-198.2560577392578	1712.653686523438	46.72367477416999	-281.5548706054688	1401.616943359375	958.6541748046876	-519.3359374999998	1447.345336914062	664.0756835937501	-494.2655944824217	1397.692626953125	691.2971801757814	-510.382598876953	1368.564697265625	594.5769042968751	-475.9388122558593	1431.7109375	587.5200805664064	-468.7019653320311	1346.004760742188	327.1628723144532	-452.8357849121093	1286.24072265625	314.8054809570314	-455.7398986816406	1269.086547851562	231.4066619873048	-435.2848205566406	1332.499877929688	227.7843475341798	-425.8786315917968	1196.913208007812	54.95014190673836	-357.7978820800781	1367.817749023438	21.31594276428232	-435.1150817871094	1409.384033203125	25.8146057128907	-329.9851684570312	
272	1.084	1594.279296875	1743.804565429688	-355.859954833984	1534.475708007812	1696.144287109375	-277.4360046386715	1535.791015625	1692.101684570312	-424.1496887207027	1399.513427734375	1524.954711914062	-348.4358520507809	1326.977783203125	1329.205810546875	-280.7942810058591	1327.126831054688	1333.0263671875	-424.2291870117185	1576.85302734375	1361.661376953125	-344.3034362792966	1473.13818359375	1475.6552734375	-172.794769287109	1419.6142578125	1317.755981445312	-82.28632354736298	1474.198608398438	1227.8486328125	-74.8696212768552	1353.192993164062	1239.537353515625	-74.01013946533176	1390.21044921875	1129.971801757812	-63.0290145874021	1374.18408203125	1126.756225585938	-144.9253845214841	1483.68017578125	943.3720703125	-53.02922821044901	1523.530029296875	876.951416015625	-89.27172088623027	1452.173217773438	854.6610717773438	-57.34398651123028	1519.089721679688	788.390380859375	-33.40073776245099	1484.156127929688	1479.4697265625	-512.5988159179684	1467.038818359375	1314.700561523438	-611.6144409179684	1528.5498046875	1233.339599609375	-606.4352416992185	1409.322143554688	1238.722045898438	-643.0430908203123	1466.85498046875	1133.935180664063	-648.0939941406248	1410.939819335938	1126.120483398438	-594.0430908203123	1585.45458984375	968.8859252929689	-613.1075439453123	1617.149780273438	913.7964477539064	-556.2372436523435	1580.57568359375	884.6303100585939	-619.8740234374998	1661.686157226562	838.2666625976564	-597.8281249999998	1462.540405273438	1077.951416015625	-174.6272888183591	1331.181884765625	1051.948608398438	-340.855041503906	1452.52490234375	1069.463745117188	-518.2468261718748	1426.358764648438	925.7532958984375	-153.1513366699217	1551.727172851562	660.3675537109375	-176.6546630859374	1601.229248046875	692.3545532226562	-173.555709838867	1634.448486328125	595.1201171875	-206.7687225341795	1571.133911132812	582.7107543945312	-197.006637573242	1564.90869140625	367.4278869628907	-191.4637603759765	1620.283569335938	345.9602661132813	-203.1991119384765	1615.89306640625	261.1713867187501	-218.7002410888671	1552.397583007812	268.0667419433594	-210.9865112304687	1518.666259765625	53.90999984741217	-295.3444519042969	1671.994873046875	31.89307403564457	-198.8328552246094	1730.350463867188	47.48111343383795	-281.9396057128906	1406.522705078125	958.1170043945314	-519.140930175781	1450.0029296875	663.6508789062501	-494.4709472656248	1400.667114257812	691.3116455078126	-510.4480590820311	1371.007934570312	594.5587768554689	-475.8647155761718	1434.24951171875	587.3030395507814	-468.9129943847655	1347.029541015625	327.2981262207032	-452.8144836425781	1287.15380859375	315.1774291992189	-455.4591369628906	1269.65478515625	231.7656707763673	-435.0356140136718	1333.068603515625	227.8782348632813	-425.8042297363281	1197.019165039062	55.58141708374031	-357.4687805175781	1367.650390625	21.35185813903818	-434.9715576171875	1409.442260742188	25.80685424804695	-330.0455322265625	
